<svg width="15" height="20" viewBox="0 0 15 20" fill="none" xmlns="http://www.w3.org/2000/svg">
<g id="Group 1000011749">
<path id="Ellipse 749" d="M5.11445 19.0784C7.34177 19.0784 9.14737 17.2728 9.14737 15.0455C9.14737 13.6797 8.46846 12.4725 7.4297 11.743V3.38221C7.4297 2.40555 6.81683 1.53392 5.89776 1.20349C5.39142 1.02145 4.83749 1.02145 4.33115 1.20349C3.41208 1.53392 2.7992 2.40555 2.7992 3.38221V11.743C1.76045 12.4725 1.08154 13.6797 1.08154 15.0455C1.08154 17.2728 2.88714 19.0784 5.11445 19.0784Z" stroke="#00428E" stroke-width="1.5"/>
<circle id="Ellipse 750" cx="5.11357" cy="15.0455" r="1.55375" stroke="#00428E" stroke-width="1.5"/>
<path id="Vector 1165" d="M5.11426 13.3731V6.1499" stroke="#00428E" stroke-width="1.5"/>
<g id="Group 1000011748">
<path id="Vector 1166" d="M9.66675 6.28662H13.3334" stroke="#00428E" stroke-width="1.5" stroke-linecap="round"/>
<path id="Vector 1167" d="M9.66675 8.57861H12.6105" stroke="#00428E" stroke-width="1.5" stroke-linecap="round"/>
</g>
</g>
</svg>
