<svg width="18" height="22" viewBox="0 0 18 22" fill="none" xmlns="http://www.w3.org/2000/svg">
<g id="Group 1000011700">
<path id="Vector 1158" d="M2.85864 13.1882L3.83793 9.84611C4.04645 9.13448 4.61756 8.58735 5.33748 8.40954V8.40954C7.74322 7.81536 10.2574 7.81536 12.6631 8.40954V8.40954C13.3831 8.58735 13.9542 9.13448 14.1627 9.84611L15.142 13.1882" stroke="#00428E" stroke-width="1.5"/>
<path id="Vector 1157" d="M2.58341 13.1885H15.4167M2.58341 13.1885H0.291748M2.58341 13.1885L2.51218 13.3309C2.25761 13.8401 2.12508 14.4015 2.12508 14.9707V20.5218H4.87508V18.6885H13.1251V20.5218H15.8751V14.9707C15.8751 14.4015 15.7426 13.8401 15.488 13.3309L15.4167 13.1885M15.4167 13.1885H17.7084" stroke="#00428E" stroke-width="1.5"/>
<g id="Group 1000011707">
<circle id="Ellipse 710" cx="4.87492" cy="15.9382" r="0.916667" fill="#00428E"/>
<circle id="Ellipse 711" cx="13.1249" cy="15.9382" r="0.916667" fill="#00428E"/>
</g>
<g id="Group 1000011706">
<path id="Ellipse 712" d="M12.8044 5.85514C11.9369 4.46359 10.5558 3.56348 9.00021 3.56348C7.44462 3.56348 6.06351 4.46359 5.19604 5.85514" stroke="#00428E" stroke-width="1.5" stroke-linecap="round"/>
<path id="Ellipse 713" d="M3.13086 4.48014C4.12794 2.32023 6.38076 0.813477 9.00016 0.813477C11.6196 0.813477 13.8724 2.32023 14.8695 4.48014" stroke="#00428E" stroke-width="1.5" stroke-linecap="round"/>
</g>
</g>
</svg>
