<svg width="21" height="20" viewBox="0 0 21 20" fill="none" xmlns="http://www.w3.org/2000/svg">
<g id="Group 1000011747">
<path id="Vector 1159" d="M19.982 4.0186L20.1562 2.7265C20.2583 1.96877 19.7257 1.27213 18.9677 1.17206C18.6476 1.1298 18.3233 1.1298 18.0032 1.17206L17.8741 1.18911C17.2018 1.27787 16.7462 1.91861 16.8831 2.58276L17.186 4.05248C17.2595 4.40884 17.5102 4.70279 17.8505 4.83152L17.8761 4.84119C18.3439 5.01815 18.8603 5.01815 19.3281 4.84119C19.6806 4.70787 19.9316 4.39206 19.982 4.0186Z" stroke="#00428E" stroke-width="1.5"/>
<path id="Vector 1160" d="M18.249 6.84106C15.5137 6.94989 14.3485 12.0242 14.1825 15.1583C12.0528 14.4801 10.3736 13.9347 9.13542 13.9598C5.36358 14.0363 5.3435 17.6946 6.41213 18.8916H16.3395L19.615 8.98948C19.8239 8.35774 19.9326 7.58593 19.406 7.1793C19.0957 6.93978 18.6868 6.82364 18.249 6.84106Z" stroke="#00428E" stroke-width="1.5"/>
<g id="Group 1000011739">
<path id="Ellipse 712" d="M8.08893 9.88209C7.13725 9.47411 6.09677 9.50614 5.29073 10.0675C4.4847 10.6289 4.09391 11.5938 4.14662 12.6279" stroke="#00428E" stroke-width="1.5" stroke-linecap="round"/>
<path id="Ellipse 713" d="M2.05667 11.9087C1.79382 10.4297 2.41735 8.83593 3.77462 7.89061C5.13188 6.94529 6.84296 6.91301 8.1391 7.67234" stroke="#00428E" stroke-width="1.5" stroke-linecap="round"/>
</g>
</g>
</svg>
