<svg width="20" height="21" viewBox="0 0 20 21" fill="none" xmlns="http://www.w3.org/2000/svg">
<g id="Group 1000011779">
<path id="Star 1" d="M9.85275 3.37216C9.91541 3.25417 10.0845 3.25417 10.1471 3.37216L12.0102 6.87998C12.2511 7.33356 12.6877 7.65074 13.1935 7.73969L17.1054 8.4276C17.2369 8.45073 17.2892 8.61152 17.1963 8.70758L14.4359 11.5634C14.079 11.9327 13.9122 12.4459 13.9839 12.9545L14.5385 16.8875C14.5572 17.0197 14.4204 17.1191 14.3004 17.0605L10.7312 15.3177C10.2697 15.0923 9.73013 15.0923 9.26863 15.3177L5.69953 17.0605C5.57948 17.1191 5.44271 17.0197 5.46136 16.8874L6.01595 12.9545C6.08766 12.4459 5.92091 11.9327 5.56398 11.5634L2.80356 8.70758C2.71071 8.61152 2.76295 8.45074 2.89453 8.4276L6.80639 7.73969C7.31221 7.65074 7.74877 7.33356 7.98967 6.87998L9.85275 3.37216Z" stroke="#303030" stroke-width="1.5"/>
<path id="Vector 1222" d="M13.395 3.77556L16.4142 0.756293" stroke="#303030" stroke-width="1.5" stroke-linecap="round"/>
<path id="Vector 1224" d="M15.5872 5.02686L16.9245 3.68957" stroke="#303030" stroke-width="1.5" stroke-linecap="round"/>
<path id="Vector 1223" d="M1.24202 15.9285L2.91934 14.2513" stroke="#303030" stroke-width="1.5" stroke-linecap="round"/>
</g>
</svg>
