<svg width="56" height="56" viewBox="0 0 56 56" fill="none" xmlns="http://www.w3.org/2000/svg">
<g id="Group 1000011780">
<circle id="Ellipse 736" cx="28.0008" cy="28.0008" r="25.8441" stroke="#404040" stroke-width="2.71176"/>
<circle id="Ellipse 737" cx="27.9998" cy="28.0017" r="22.7806" stroke="#404040" stroke-width="2.71176"/>
<path id="Polygon 1" d="M23.9441 36.7295C25.9406 33.9594 30.0643 33.9594 32.0607 36.7295L37.1644 43.8108C37.5984 44.413 37.4471 45.2018 36.8321 45.5303C35.1973 46.4035 32.1199 47.6801 27.9972 47.7589C23.8155 47.8388 20.7111 46.4718 19.1 45.5463C18.5145 45.21 18.3828 44.4458 18.8053 43.8595L23.9441 36.7295Z" stroke="#404040" stroke-width="0.542352"/>
<path id="Polygon 7" d="M36.21 42.2655L37.2895 43.6386C37.852 44.3541 37.7057 45.3749 36.9012 45.8004C35.2255 46.6867 32.1302 47.9508 28.0024 48.0297C23.7993 48.1101 20.6667 46.7503 19.0133 45.8089C18.2475 45.3728 18.1213 44.3863 18.6611 43.6897L19.4793 42.6338C19.4793 42.6338 22.8932 44.9826 27.9395 44.9162C32.9858 44.8498 36.21 42.2655 36.21 42.2655Z" fill="#404040"/>
<path id="Polygon 8" d="M44.1623 23.9559L45.8005 23.3502C46.6541 23.0345 47.5807 23.4872 47.7387 24.3834C48.0676 26.2503 48.3204 29.5843 47.1281 33.5369C45.9141 37.5616 43.6581 40.1254 42.2545 41.4099C41.6044 42.0048 40.6268 41.8221 40.1296 41.0945L39.3759 39.9916C39.3759 39.9916 42.6594 37.4637 44.1456 32.6408C45.6318 27.8178 44.1623 23.9559 44.1623 23.9559Z" fill="#404040"/>
<path id="Polygon 9" d="M29.3052 11.5941L29.2274 9.84922C29.1868 8.94004 29.9002 8.19541 30.802 8.31804C32.6804 8.57347 35.9328 9.34846 39.3343 11.6882C42.7978 14.0707 44.5525 17.0005 45.3483 18.7287C45.7169 19.5291 45.2449 20.4046 44.4005 20.6565L43.1204 21.0383C43.1204 21.0383 41.713 17.1408 37.5721 14.2559C33.4312 11.371 29.3052 11.5941 29.3052 11.5941Z" fill="#404040"/>
<path id="Polygon 10" d="M12.9019 21.2885L11.2262 20.7959C10.353 20.5392 9.88021 19.6228 10.2888 18.8096C11.14 17.1158 12.9285 14.2908 16.2455 11.8327C19.623 9.32976 22.9636 8.62085 24.8565 8.42891C25.7332 8.34001 26.4082 9.07052 26.3724 9.95101L26.3182 11.2857C26.3182 11.2857 22.1749 11.3521 18.1024 14.3328C14.0298 17.3134 12.9019 21.2885 12.9019 21.2885Z" fill="#404040"/>
<path id="Polygon 11" d="M17.1362 40.4347L16.1853 41.8998C15.6898 42.6632 14.6764 42.8543 14.0139 42.2303C12.634 40.9306 10.438 38.4093 9.03046 34.5281C7.5972 30.5762 7.87262 27.1723 8.22969 25.3035C8.39507 24.4379 9.28802 23.9998 10.1216 24.2858L11.3851 24.7192C11.3851 24.7192 10.2646 28.7087 11.9569 33.4632C13.6493 38.2178 17.1362 40.4347 17.1362 40.4347Z" fill="#404040"/>
<path id="Polygon 3" d="M35.1367 34.0671C33.0891 31.3346 34.3203 27.399 37.5602 26.3207L45.8423 23.5641C46.5467 23.3297 47.2542 23.7096 47.3841 24.3947C47.7294 26.2156 48.0289 29.5338 46.8732 33.492C45.7009 37.5068 43.4694 40.0614 42.1051 41.3227C41.6093 41.7811 40.8406 41.6787 40.4072 41.1003L35.1367 34.0671Z" stroke="#404040" stroke-width="0.542352"/>
<path id="Polygon 4" d="M35.9766 23.3173C32.7327 24.3835 29.3976 21.9583 29.412 18.5437L29.4489 9.81498C29.4521 9.07266 30.0383 8.52373 30.729 8.61975C32.5646 8.87497 35.8044 9.65234 39.185 12.0132C42.6142 14.4079 44.3209 17.3393 45.0797 19.0352C45.3554 19.6517 45.0125 20.3472 44.326 20.5728L35.9766 23.3173Z" stroke="#404040" stroke-width="0.542352"/>
<path id="Polygon 5" d="M26.0073 18.7284C26.0001 22.143 22.6497 24.5471 19.4126 23.4603L11.1377 20.6821C10.434 20.4458 10.0971 19.7168 10.4053 19.0913C11.2245 17.4288 12.9806 14.5975 16.2843 12.1301C19.6353 9.62726 22.9545 8.92821 24.803 8.74088C25.4749 8.67279 26.0274 9.21689 26.0258 9.93957L26.0073 18.7284Z" stroke="#404040" stroke-width="0.542352"/>
<path id="Polygon 6" d="M18.3524 26.8913C21.6208 27.8798 22.9602 31.7799 20.9886 34.5679L15.9488 41.6948C15.5202 42.3009 14.7251 42.414 14.2146 41.9389C12.8579 40.6764 10.6509 38.1805 9.2374 34.3069C7.80361 30.3778 8.08829 26.9978 8.44028 25.1734C8.56822 24.5104 9.24818 24.1376 9.93992 24.3468L18.3524 26.8913Z" stroke="#404040" stroke-width="0.542352"/>
<circle id="Ellipse 740" cx="27.8571" cy="23.5388" r="0.993848" fill="white"/>
<circle id="Ellipse 741" cx="31.9743" cy="26.8649" r="0.993848" fill="white"/>
<circle id="Ellipse 742" cx="30.5095" cy="31.1716" r="0.993848" fill="white"/>
<circle id="Ellipse 743" cx="25.3688" cy="31.1735" r="0.993848" fill="white"/>
<circle id="Ellipse 744" cx="23.7985" cy="26.8649" r="0.993848" fill="white"/>
<g id="Subtract">
<mask id="path-18-inside-1_3640_5237" fill="white">
<path fill-rule="evenodd" clip-rule="evenodd" d="M31.6912 39.7884C38.2012 37.6145 41.7163 30.5747 39.5423 24.0647C37.3684 17.5547 30.3286 14.0396 23.8186 16.2136C17.3086 18.3875 13.7935 25.4272 15.9675 31.9373C18.1414 38.4473 25.1812 41.9624 31.6912 39.7884ZM31.0039 37.7304C36.3771 35.9361 39.2783 30.1257 37.484 24.7525C35.6897 19.3793 29.8793 16.478 24.5061 18.2723C19.1329 20.0666 16.2316 25.8771 18.0259 31.2503C19.8202 36.6235 25.6307 39.5247 31.0039 37.7304Z"/>
</mask>
<path fill-rule="evenodd" clip-rule="evenodd" d="M31.6912 39.7884C38.2012 37.6145 41.7163 30.5747 39.5423 24.0647C37.3684 17.5547 30.3286 14.0396 23.8186 16.2136C17.3086 18.3875 13.7935 25.4272 15.9675 31.9373C18.1414 38.4473 25.1812 41.9624 31.6912 39.7884ZM31.0039 37.7304C36.3771 35.9361 39.2783 30.1257 37.484 24.7525C35.6897 19.3793 29.8793 16.478 24.5061 18.2723C19.1329 20.0666 16.2316 25.8771 18.0259 31.2503C19.8202 36.6235 25.6307 39.5247 31.0039 37.7304Z" fill="white"/>
<path d="M39.5423 24.0647L39.0279 24.2365L39.5423 24.0647ZM31.6912 39.7884L31.5194 39.274L31.6912 39.7884ZM23.8186 16.2136L23.6468 15.6991L23.8186 16.2136ZM15.9675 31.9373L16.4819 31.7655L15.9675 31.9373ZM37.484 24.7525L36.9696 24.9243L37.484 24.7525ZM31.0039 37.7304L30.8321 37.216L31.0039 37.7304ZM24.5061 18.2723L24.3343 17.7579L24.5061 18.2723ZM18.0259 31.2503L17.5115 31.4221L18.0259 31.2503ZM39.0279 24.2365C41.107 30.4624 37.7453 37.1949 31.5194 39.274L31.863 40.3029C38.6571 38.034 42.3256 30.6871 40.0568 23.8929L39.0279 24.2365ZM23.9904 16.728C30.2163 14.6489 36.9488 18.0106 39.0279 24.2365L40.0568 23.8929C37.7879 17.0988 30.441 13.4303 23.6468 15.6991L23.9904 16.728ZM16.4819 31.7655C14.4028 25.5396 17.7645 18.8071 23.9904 16.728L23.6468 15.6991C16.8527 17.968 13.1842 25.3149 15.453 32.1091L16.4819 31.7655ZM31.5194 39.274C25.2935 41.3531 18.561 37.9914 16.4819 31.7655L15.453 32.1091C17.7219 38.9032 25.0688 42.5717 31.863 40.3029L31.5194 39.274ZM36.9696 24.9243C38.669 30.0133 35.9212 35.5165 30.8321 37.216L31.1756 38.2448C36.833 36.3556 39.8876 30.238 37.9984 24.5807L36.9696 24.9243ZM24.6778 18.7868C29.7669 17.0873 35.2701 19.8352 36.9696 24.9243L37.9984 24.5807C36.1092 18.9234 29.9916 15.8687 24.3343 17.7579L24.6778 18.7868ZM18.5403 31.0785C16.8409 25.9894 19.5888 20.4862 24.6778 18.7868L24.3343 17.7579C18.677 19.6471 15.6223 25.7647 17.5115 31.4221L18.5403 31.0785ZM30.8321 37.216C25.743 38.9154 20.2398 36.1676 18.5403 31.0785L17.5115 31.4221C19.4007 37.0794 25.5183 40.134 31.1756 38.2448L30.8321 37.216Z" fill="#404040" mask="url(#path-18-inside-1_3640_5237)"/>
</g>
<circle id="Ellipse 746" cx="27.5515" cy="28.0013" r="3.22118" transform="rotate(-18.4662 27.5515 28.0013)" stroke="#404040" stroke-width="0.542352"/>
<g id="Group 1000011747">
<path id="Ellipse 700" d="M28.5297 22.7631C28.5297 23.2469 28.1376 23.639 27.6538 23.639C27.17 23.639 26.7779 23.2469 26.7779 22.7631C26.7779 22.2794 27.17 21.8872 27.6538 21.8872C28.1376 21.8872 28.5297 22.2794 28.5297 22.7631Z" stroke="#404040" stroke-width="0.813529"/>
<g id="Group 1000011696">
<path id="Ellipse 702" d="M31.85 32.6127C31.85 33.0965 31.4579 33.4886 30.9741 33.4886C30.4903 33.4886 30.0982 33.0965 30.0982 32.6127C30.0982 32.129 30.4903 31.7368 30.9741 31.7368C31.4579 31.7368 31.85 32.129 31.85 32.6127Z" stroke="#404040" stroke-width="0.813529"/>
<path id="Ellipse 703" d="M25.2133 32.6166C25.2133 33.1004 24.8211 33.4925 24.3374 33.4925C23.8536 33.4925 23.4615 33.1004 23.4615 32.6166C23.4615 32.1329 23.8536 31.7407 24.3374 31.7407C24.8211 31.7407 25.2133 32.1329 25.2133 32.6166Z" stroke="#404040" stroke-width="0.813529"/>
</g>
<g id="Group 1000011697">
<path id="Ellipse 701" d="M33.807 27.0541C33.807 27.5379 33.4149 27.93 32.9311 27.93C32.4474 27.93 32.0552 27.5379 32.0552 27.0541C32.0552 26.5704 32.4474 26.1782 32.9311 26.1782C33.4149 26.1782 33.807 26.5704 33.807 27.0541Z" stroke="#404040" stroke-width="0.813529"/>
<path id="Ellipse 704" d="M23.2563 27.0541C23.2563 27.5379 22.8641 27.93 22.3803 27.93C21.8966 27.93 21.5044 27.5379 21.5044 27.0541C21.5044 26.5704 21.8966 26.1782 22.3803 26.1782C22.8641 26.1782 23.2563 26.5704 23.2563 27.0541Z" stroke="#404040" stroke-width="0.813529"/>
</g>
</g>
</g>
</svg>
