<svg width="68" height="68" viewBox="0 0 68 68" fill="none" xmlns="http://www.w3.org/2000/svg">
<rect x="16.4297" y="19.5176" width="34.4265" height="29.0025" fill="#404040"/>
<circle cx="50.7375" cy="34.0012" r="14.5383" fill="#404040"/>
<circle cx="17.261" cy="34.0012" r="14.5383" fill="#404040"/>
<circle cx="17.7671" cy="34.019" r="10.5124" stroke="white" stroke-width="0.595412"/>
<circle cx="17.7644" cy="34.0183" r="9.1433" fill="white"/>
<path d="M10.25 39.2273C11.1062 40.4624 12.2535 41.4674 13.5906 42.1534C14.9277 42.8394 16.4132 43.1852 17.9158 43.1603C19.4183 43.1355 20.8916 42.7406 22.2052 42.0107C23.5188 41.2808 24.6323 40.2384 25.4471 38.9757L17.7644 34.0183L10.25 39.2273Z" fill="#404040"/>
<circle cx="17.7648" cy="34.0187" r="7.06555" fill="#404040"/>
<circle cx="50.7046" cy="34.019" r="10.5124" stroke="white" stroke-width="0.595412"/>
<circle cx="33.8049" cy="25.2053" r="1.48853" fill="white"/>
<circle cx="33.8049" cy="30.5647" r="1.48853" fill="white"/>
<circle cx="33.8049" cy="35.9221" r="1.48853" fill="white"/>
<rect x="29.4297" y="42.4062" width="9.13878" height="2.31205" rx="1.15602" fill="white"/>
<circle cx="50.7039" cy="34.0183" r="1.07415" stroke="white" stroke-width="0.595412"/>
<path d="M14.5898 24.5195L17.7671 33.4975" stroke="#404040" stroke-width="0.595412"/>
<path d="M21.2227 24.5195L18.0454 33.4975" stroke="#404040" stroke-width="0.595412"/>
<path d="M9.83984 28.793L17.7649 33.4978" stroke="#404040" stroke-width="0.595412"/>
<path d="M25.9688 28.793L18.0437 33.4978" stroke="#404040" stroke-width="0.595412"/>
<path d="M8.125 34.4883L17.7665 33.496" stroke="#404040" stroke-width="0.595412"/>
<path d="M27.6836 34.4883L18.0421 33.496" stroke="#404040" stroke-width="0.595412"/>
<circle cx="17.7664" cy="34.0183" r="1.07415" stroke="white" stroke-width="0.595412"/>
<path d="M18.6641 33.4915L21.3408 31.707" stroke="white" stroke-width="0.595412"/>
<path d="M50.7031 44.554L50.7031 23.3887" stroke="white" stroke-width="0.893118"/>
<path d="M50.66 33.9266L43.2656 26.6895" stroke="white" stroke-width="0.893118"/>
<path d="M50.6609 33.9273L58.0977 26.8301" stroke="white" stroke-width="0.893118"/>
<path d="M50.7039 33.9258H61.2266" stroke="white" stroke-width="0.893118"/>
<path d="M50.6593 33.9258H40.1367" stroke="white" stroke-width="0.893118"/>
<path d="M50.7038 33.9275L57.8672 41.6289" stroke="white" stroke-width="0.893118"/>
<path d="M50.6603 33.9267L43.1836 41.3984" stroke="white" stroke-width="0.893118"/>
<circle cx="50.703" cy="34.0194" r="7.54672" fill="#404040"/>
<circle cx="50.8289" cy="34.0183" r="1.07415" stroke="white" stroke-width="0.595412"/>
<path d="M51.7266 33.4915L54.4033 31.707" stroke="white" stroke-width="0.595412"/>
</svg>
