<svg width="62" height="28" viewBox="0 0 62 28" fill="none" xmlns="http://www.w3.org/2000/svg">
<g id="Group 1000011781">
<path id="Rectangle 6668118" d="M0.765625 2.77394C0.765625 1.63565 1.68839 0.712891 2.82667 0.712891H55.0219C56.0281 0.712891 56.8873 1.43953 57.0543 2.43183L60.4293 22.4826C60.8525 24.9971 58.9142 27.2889 56.3644 27.2889H2.82667C1.68839 27.2889 0.765625 26.3661 0.765625 25.2278V2.77394Z" fill="#404040"/>
<path id="Rectangle 6668119" d="M7.48828 3.32935C7.48828 2.76021 7.94966 2.29883 8.5188 2.29883H50.2883C50.8575 2.29883 51.3189 2.76021 51.3189 3.32935V24.6736C51.3189 25.2427 50.8575 25.7041 50.2883 25.7041H8.51881C7.94967 25.7041 7.48828 25.2428 7.48828 24.6736V3.32935Z" fill="white"/>
<path id="Vector 1178" d="M9.42188 7.3457H49.702" stroke="#404040" stroke-width="1.03052"/>
<path id="Vector 1179" d="M10.1602 7.36328C11.5767 7.36328 16.738 7.36328 26.0505 7.36328C37.691 7.36328 46.4677 10.0424 53.5813 17.1561" stroke="#404040" stroke-width="1.03052"/>
<rect id="Rectangle 6668120" x="49.6289" y="5.13281" width="1.701" height="16.5848" fill="white"/>
<path id="Vector 1180" d="M3.38672 11.1035C4.40366 14.0347 9.52427 19.8972 21.8711 19.8972C34.218 19.8972 48.9098 19.8972 54.7123 19.8972" stroke="#404040" stroke-width="1.03052"/>
<path id="Vector 1181" d="M16.668 1.77344V25.821" stroke="#404040" stroke-width="1.03052"/>
<rect id="Rectangle 6668121" x="7.48438" y="5.13281" width="1.701" height="16.5848" fill="white"/>
<rect id="Rectangle 6668122" x="25.7578" y="2.28906" width="1.701" height="16.5848" transform="rotate(90 25.7578 2.28906)" fill="white"/>
<rect id="Rectangle 6668123" x="25.7578" y="24.0039" width="1.701" height="16.5848" transform="rotate(90 25.7578 24.0039)" fill="white"/>
<rect id="Rectangle 6668124" x="18.6328" y="9.32227" width="1.85315" height="1.85315" fill="#404040"/>
<circle id="Ellipse 747" cx="30.205" cy="16.8749" r="6.97097" fill="white" stroke="#404040" stroke-width="1.03052"/>
<path id="Vector 1182" d="M30.1284 18.307L26.5195 19.7815L30.206 12.7578L33.8924 19.8203L30.1284 18.307Z" fill="#404040"/>
<rect id="Rectangle 6668125" x="2.03906" y="10.3691" width="1.55606" height="7.57268" rx="0.257631" fill="white"/>
</g>
</svg>
