<svg width="46" height="55" viewBox="0 0 46 55" fill="none" xmlns="http://www.w3.org/2000/svg">
<g id="Group 1000011753">
<path id="Vector 1176" d="M9.19385 37.0069C8.05027 36.7416 7.02573 37.572 6.65641 38.0203L1.10547 13.0478L2.41879 12.7715L9.19385 37.0069Z" fill="#404040"/>
<g id="Vector 1173">
<path d="M44.9912 49.2327L17.672 50.4982L16.1953 46.3847C21.6803 44.2926 33.8526 40.0452 38.6625 39.7921C44.6748 39.4756 45.4659 42.06 45.5186 44.3278C45.5608 46.142 45.1846 48.3537 44.9912 49.2327Z" fill="#404040"/>
<path d="M18.6213 53.3463L17.9885 51.2367L44.7275 50.1819C44.6854 51.4477 43.8661 52.7134 43.4618 53.1881L18.6213 53.3463Z" fill="#404040"/>
</g>
<path id="Vector 1175" d="M10.0203 36.9505L15.6134 45.1027C15.8362 45.053 17.0668 43.974 17.5354 42.5683C18.4148 39.93 15.8506 35.3616 14.1882 31.9797C12.5259 28.5977 5.92995 15.6146 5.09262 13.7829C4.42276 12.3176 3.42364 12.458 3.00781 12.7114L10.0203 36.9505Z" fill="#404040"/>
<path id="Rectangle 6668116" d="M0.996094 10.5801H2.12266V12.3398H0.996094V10.5801Z" fill="#404040"/>
<path id="Vector 1177" d="M0.480469 0.738032L0.825296 10.0771C1.83106 10.0867 3.96329 10.1059 4.44606 10.1059C5.04952 10.1059 5.4231 10.1921 5.56678 8.81279C5.71046 7.43345 4.84837 4.99087 3.64145 2.54828C2.67591 0.59422 1.13182 0.527256 0.480469 0.738032Z" fill="#404040"/>
<path id="Vector 1174" d="M17.6047 53.8312H18.3881L18.1049 53.1007C17.3428 51.1354 15.6072 46.5619 14.7459 43.954C14.2074 42.3235 13.625 40.6727 12.8307 39.4376C12.0284 38.19 10.9399 37.2643 9.38222 37.3005C7.95792 37.3336 7.07733 37.8371 6.60932 38.6574C6.17761 39.4141 6.16696 40.338 6.18182 41.0362C6.20638 42.1906 6.85686 49.7393 7.17622 53.3421L7.21957 53.8312H7.71059H17.6047Z" fill="#404040" stroke="white" stroke-width="1.07294"/>
<circle id="Ellipse 758" cx="9.42446" cy="41.0241" r="1.56002" stroke="white" stroke-width="0.59608"/>
</g>
</svg>
