<svg width="68" height="68" viewBox="0 0 68 68" fill="none" xmlns="http://www.w3.org/2000/svg">
<circle cx="34.0008" cy="34.0008" r="25.8441" stroke="#404040" stroke-width="2.71176"/>
<circle cx="33.9998" cy="34.0017" r="22.7806" stroke="#404040" stroke-width="2.71176"/>
<path d="M29.9441 42.7295C31.9406 39.9594 36.0643 39.9594 38.0607 42.7295L43.1644 49.8108C43.5984 50.413 43.4471 51.2018 42.8321 51.5303C41.1973 52.4035 38.1199 53.6801 33.9972 53.7589C29.8155 53.8388 26.7111 52.4718 25.1 51.5463C24.5145 51.21 24.3828 50.4458 24.8053 49.8595L29.9441 42.7295Z" stroke="#404040" stroke-width="0.542352"/>
<path d="M42.21 48.2655L43.2895 49.6386C43.852 50.3541 43.7057 51.3749 42.9012 51.8004C41.2255 52.6867 38.1302 53.9508 34.0024 54.0297C29.7993 54.1101 26.6667 52.7503 25.0133 51.8089C24.2475 51.3728 24.1213 50.3863 24.6611 49.6897L25.4793 48.6338C25.4793 48.6338 28.8932 50.9826 33.9395 50.9162C38.9858 50.8498 42.21 48.2655 42.21 48.2655Z" fill="#404040"/>
<path d="M50.1623 29.9559L51.8005 29.3502C52.6541 29.0345 53.5807 29.4872 53.7387 30.3834C54.0676 32.2503 54.3204 35.5843 53.1281 39.5369C51.9141 43.5616 49.6581 46.1254 48.2545 47.4099C47.6044 48.0048 46.6268 47.8221 46.1296 47.0945L45.3759 45.9916C45.3759 45.9916 48.6594 43.4637 50.1456 38.6408C51.6318 33.8178 50.1623 29.9559 50.1623 29.9559Z" fill="#404040"/>
<path d="M35.3052 17.5941L35.2274 15.8492C35.1868 14.94 35.9002 14.1954 36.802 14.318C38.6804 14.5735 41.9328 15.3485 45.3343 17.6882C48.7978 20.0707 50.5525 23.0005 51.3483 24.7287C51.7169 25.5291 51.2449 26.4046 50.4005 26.6565L49.1204 27.0383C49.1204 27.0383 47.713 23.1408 43.5721 20.2559C39.4312 17.371 35.3052 17.5941 35.3052 17.5941Z" fill="#404040"/>
<path d="M18.9019 27.2885L17.2262 26.7959C16.353 26.5392 15.8802 25.6228 16.2888 24.8096C17.14 23.1158 18.9285 20.2908 22.2455 17.8327C25.623 15.3298 28.9636 14.6208 30.8565 14.4289C31.7332 14.34 32.4082 15.0705 32.3724 15.951L32.3182 17.2857C32.3182 17.2857 28.1749 17.3521 24.1024 20.3328C20.0298 23.3134 18.9019 27.2885 18.9019 27.2885Z" fill="#404040"/>
<path d="M23.1362 46.4347L22.1853 47.8998C21.6898 48.6632 20.6764 48.8543 20.0139 48.2303C18.634 46.9306 16.438 44.4093 15.0305 40.5281C13.5972 36.5762 13.8726 33.1723 14.2297 31.3035C14.3951 30.4379 15.288 29.9998 16.1216 30.2858L17.3851 30.7192C17.3851 30.7192 16.2646 34.7087 17.9569 39.4632C19.6493 44.2178 23.1362 46.4347 23.1362 46.4347Z" fill="#404040"/>
<path d="M41.1367 40.0671C39.0891 37.3346 40.3203 33.399 43.5602 32.3207L51.8423 29.5641C52.5467 29.3297 53.2542 29.7096 53.3841 30.3947C53.7294 32.2156 54.0289 35.5338 52.8732 39.492C51.7009 43.5068 49.4694 46.0614 48.1051 47.3227C47.6093 47.7811 46.8406 47.6787 46.4072 47.1003L41.1367 40.0671Z" stroke="#404040" stroke-width="0.542352"/>
<path d="M41.9766 29.3173C38.7327 30.3835 35.3976 27.9583 35.412 24.5437L35.4489 15.815C35.4521 15.0727 36.0383 14.5237 36.729 14.6198C38.5646 14.875 41.8044 15.6523 45.185 18.0132C48.6142 20.4079 50.3209 23.3393 51.0797 25.0352C51.3554 25.6517 51.0125 26.3472 50.326 26.5728L41.9766 29.3173Z" stroke="#404040" stroke-width="0.542352"/>
<path d="M32.0073 24.7284C32.0001 28.143 28.6497 30.5471 25.4126 29.4603L17.1377 26.6821C16.434 26.4458 16.0971 25.7168 16.4053 25.0913C17.2245 23.4288 18.9806 20.5975 22.2843 18.1301C25.6353 15.6273 28.9545 14.9282 30.803 14.7409C31.4749 14.6728 32.0274 15.2169 32.0258 15.9396L32.0073 24.7284Z" stroke="#404040" stroke-width="0.542352"/>
<path d="M24.3524 32.8913C27.6208 33.8798 28.9602 37.7799 26.9886 40.5679L21.9488 47.6948C21.5202 48.3009 20.7251 48.414 20.2146 47.9389C18.8579 46.6764 16.6509 44.1805 15.2374 40.3069C13.8036 36.3778 14.0883 32.9978 14.4403 31.1734C14.5682 30.5104 15.2482 30.1376 15.9399 30.3468L24.3524 32.8913Z" stroke="#404040" stroke-width="0.542352"/>
<circle cx="33.8571" cy="29.5388" r="0.993848" fill="white"/>
<circle cx="37.9743" cy="32.8649" r="0.993848" fill="white"/>
<circle cx="36.5095" cy="37.1716" r="0.993848" fill="white"/>
<circle cx="31.3688" cy="37.1735" r="0.993848" fill="white"/>
<circle cx="29.7985" cy="32.8649" r="0.993848" fill="white"/>
<mask id="path-18-inside-1_349_4659" fill="white">
<path fill-rule="evenodd" clip-rule="evenodd" d="M37.6912 45.7884C44.2012 43.6145 47.7163 36.5747 45.5423 30.0647C43.3684 23.5547 36.3286 20.0396 29.8186 22.2136C23.3086 24.3875 19.7935 31.4272 21.9675 37.9373C24.1414 44.4473 31.1812 47.9624 37.6912 45.7884ZM37.0039 43.7304C42.3771 41.9361 45.2783 36.1257 43.484 30.7525C41.6897 25.3793 35.8793 22.478 30.5061 24.2723C25.1329 26.0666 22.2316 31.8771 24.0259 37.2503C25.8202 42.6235 31.6307 45.5247 37.0039 43.7304Z"/>
</mask>
<path fill-rule="evenodd" clip-rule="evenodd" d="M37.6912 45.7884C44.2012 43.6145 47.7163 36.5747 45.5423 30.0647C43.3684 23.5547 36.3286 20.0396 29.8186 22.2136C23.3086 24.3875 19.7935 31.4272 21.9675 37.9373C24.1414 44.4473 31.1812 47.9624 37.6912 45.7884ZM37.0039 43.7304C42.3771 41.9361 45.2783 36.1257 43.484 30.7525C41.6897 25.3793 35.8793 22.478 30.5061 24.2723C25.1329 26.0666 22.2316 31.8771 24.0259 37.2503C25.8202 42.6235 31.6307 45.5247 37.0039 43.7304Z" fill="white"/>
<path d="M45.5423 30.0647L45.0279 30.2365L45.5423 30.0647ZM37.6912 45.7884L37.5194 45.274L37.6912 45.7884ZM29.8186 22.2136L29.6468 21.6991L29.8186 22.2136ZM21.9675 37.9373L22.4819 37.7655L21.9675 37.9373ZM43.484 30.7525L42.9696 30.9243L43.484 30.7525ZM37.0039 43.7304L36.8321 43.216L37.0039 43.7304ZM30.5061 24.2723L30.3343 23.7579L30.5061 24.2723ZM24.0259 37.2503L23.5115 37.4221L24.0259 37.2503ZM45.0279 30.2365C47.107 36.4624 43.7453 43.1949 37.5194 45.274L37.863 46.3029C44.6571 44.034 48.3256 36.6871 46.0568 29.8929L45.0279 30.2365ZM29.9904 22.728C36.2163 20.6489 42.9488 24.0106 45.0279 30.2365L46.0568 29.8929C43.7879 23.0988 36.441 19.4303 29.6468 21.6991L29.9904 22.728ZM22.4819 37.7655C20.4028 31.5396 23.7645 24.8071 29.9904 22.728L29.6468 21.6991C22.8527 23.968 19.1842 31.3149 21.453 38.1091L22.4819 37.7655ZM37.5194 45.274C31.2935 47.3531 24.561 43.9914 22.4819 37.7655L21.453 38.1091C23.7219 44.9032 31.0688 48.5717 37.863 46.3029L37.5194 45.274ZM42.9696 30.9243C44.669 36.0133 41.9212 41.5165 36.8321 43.216L37.1756 44.2448C42.833 42.3556 45.8876 36.238 43.9984 30.5807L42.9696 30.9243ZM30.6778 24.7868C35.7669 23.0873 41.2701 25.8352 42.9696 30.9243L43.9984 30.5807C42.1092 24.9234 35.9916 21.8687 30.3343 23.7579L30.6778 24.7868ZM24.5403 37.0785C22.8409 31.9894 25.5888 26.4862 30.6778 24.7868L30.3343 23.7579C24.677 25.6471 21.6223 31.7647 23.5115 37.4221L24.5403 37.0785ZM36.8321 43.216C31.743 44.9154 26.2398 42.1676 24.5403 37.0785L23.5115 37.4221C25.4007 43.0794 31.5183 46.134 37.1756 44.2448L36.8321 43.216Z" fill="#404040" mask="url(#path-18-inside-1_349_4659)"/>
<circle cx="33.5515" cy="34.0013" r="3.22118" transform="rotate(-18.4662 33.5515 34.0013)" stroke="#404040" stroke-width="0.542352"/>
<path d="M34.5297 28.7631C34.5297 29.2469 34.1376 29.639 33.6538 29.639C33.17 29.639 32.7779 29.2469 32.7779 28.7631C32.7779 28.2794 33.17 27.8872 33.6538 27.8872C34.1376 27.8872 34.5297 28.2794 34.5297 28.7631Z" stroke="#404040" stroke-width="0.813529"/>
<path d="M37.85 38.6127C37.85 39.0965 37.4579 39.4886 36.9741 39.4886C36.4903 39.4886 36.0982 39.0965 36.0982 38.6127C36.0982 38.129 36.4903 37.7368 36.9741 37.7368C37.4579 37.7368 37.85 38.129 37.85 38.6127Z" stroke="#404040" stroke-width="0.813529"/>
<path d="M31.2133 38.6166C31.2133 39.1004 30.8211 39.4925 30.3374 39.4925C29.8536 39.4925 29.4615 39.1004 29.4615 38.6166C29.4615 38.1329 29.8536 37.7407 30.3374 37.7407C30.8211 37.7407 31.2133 38.1329 31.2133 38.6166Z" stroke="#404040" stroke-width="0.813529"/>
<path d="M39.807 33.0541C39.807 33.5379 39.4149 33.93 38.9311 33.93C38.4474 33.93 38.0552 33.5379 38.0552 33.0541C38.0552 32.5704 38.4474 32.1782 38.9311 32.1782C39.4149 32.1782 39.807 32.5704 39.807 33.0541Z" stroke="#404040" stroke-width="0.813529"/>
<path d="M29.2563 33.0541C29.2563 33.5379 28.8641 33.93 28.3803 33.93C27.8966 33.93 27.5044 33.5379 27.5044 33.0541C27.5044 32.5704 27.8966 32.1782 28.3803 32.1782C28.8641 32.1782 29.2563 32.5704 29.2563 33.0541Z" stroke="#404040" stroke-width="0.813529"/>
</svg>
