<svg width="56" height="56" viewBox="0 0 56 56" fill="none" xmlns="http://www.w3.org/2000/svg">
<g id="Group 1000011750">
<circle id="Ellipse 731" cx="28.0008" cy="28.0008" r="25.881" stroke="#404040" stroke-width="2.63791"/>
<circle id="Ellipse 732" cx="27.9998" cy="28.0017" r="22.8175" stroke="#404040" stroke-width="2.63791"/>
<circle id="Ellipse 733" cx="28.0017" cy="28.0004" r="20.7128" transform="rotate(-18.4662 28.0017 28.0004)" stroke="#404040" stroke-width="0.527581"/>
<g id="Group 1000011732">
<path id="Ellipse 700" d="M28.99 22.7631C28.99 23.253 28.5929 23.6501 28.103 23.6501C27.6131 23.6501 27.216 23.253 27.216 22.7631C27.216 22.2733 27.6131 21.8762 28.103 21.8762C28.5929 21.8762 28.99 22.2733 28.99 22.7631Z" stroke="#404040" stroke-width="0.791372"/>
<g id="Group 1000011696">
<path id="Ellipse 702" d="M32.3142 32.6127C32.3142 33.1026 31.9171 33.4997 31.4272 33.4997C30.9373 33.4997 30.5402 33.1026 30.5402 32.6127C30.5402 32.1229 30.9373 31.7258 31.4272 31.7258C31.9171 31.7258 32.3142 32.1229 32.3142 32.6127Z" stroke="#404040" stroke-width="0.791372"/>
<path id="Ellipse 703" d="M25.6736 32.6166C25.6736 33.1065 25.2765 33.5036 24.7866 33.5036C24.2967 33.5036 23.8996 33.1065 23.8996 32.6166C23.8996 32.1268 24.2967 31.7297 24.7866 31.7297C25.2765 31.7297 25.6736 32.1268 25.6736 32.6166Z" stroke="#404040" stroke-width="0.791372"/>
</g>
<g id="Group 1000011697">
<path id="Ellipse 701" d="M34.2673 27.0541C34.2673 27.544 33.8702 27.9411 33.3803 27.9411C32.8905 27.9411 32.4933 27.544 32.4933 27.0541C32.4933 26.5643 32.8905 26.1672 33.3803 26.1672C33.8702 26.1672 34.2673 26.5643 34.2673 27.0541Z" stroke="#404040" stroke-width="0.791372"/>
<path id="Ellipse 704" d="M23.7166 27.0541C23.7166 27.544 23.3195 27.9411 22.8296 27.9411C22.3397 27.9411 21.9426 27.544 21.9426 27.0541C21.9426 26.5643 22.3397 26.1672 22.8296 26.1672C23.3195 26.1672 23.7166 26.5643 23.7166 27.0541Z" stroke="#404040" stroke-width="0.791372"/>
</g>
</g>
<circle id="Ellipse 734" cx="28.0004" cy="28.0011" r="7.779" transform="rotate(-18.4662 28.0004 28.0011)" stroke="#404040" stroke-width="0.527581"/>
<circle id="Ellipse 735" cx="28.0008" cy="28.0013" r="3.22857" transform="rotate(-18.4662 28.0008 28.0013)" stroke="#404040" stroke-width="0.527581"/>
<g id="Group 1000011733">
<path id="Vector 1163" d="M38.7109 44.1892C36.9785 45.3889 34.8004 46.1607 32.9662 46.6132C31.5452 46.9638 30.421 45.6349 30.8158 44.2255L33.3991 35.0034C33.7734 33.6674 35.3131 33.0499 36.5068 33.7571L42.4415 37.2728C43.4574 37.8746 43.8008 39.2073 43.0739 40.1378C42.1714 41.2933 40.8015 42.7414 38.7109 44.1892Z" fill="#404040"/>
<path id="Vector 1164" d="M37.4586 40.8567C36.5554 41.5036 35.436 41.938 34.4274 42.2157C33.369 42.507 32.5237 41.5087 32.8198 40.4517L34.148 35.7106C34.4287 34.7085 35.5834 34.2454 36.4787 34.7758L39.4346 36.5269C40.1965 36.9782 40.4297 37.9633 39.8532 38.6355C39.2514 39.3373 38.4313 40.16 37.4586 40.8567Z" fill="white"/>
</g>
<g id="Group 1000011734">
<path id="Vector 1163_2" d="M47.4104 27.1049C47.5832 29.2051 47.1625 31.4773 46.6373 33.2919C46.2304 34.6978 44.5174 35.007 43.4943 33.9605L36.7994 27.1121C35.8295 26.12 36.0646 24.4778 37.2739 23.7976L43.286 20.4159C44.3151 19.837 45.6409 20.206 46.0833 21.3007C46.6327 22.6601 47.2018 24.5705 47.4104 27.1049Z" fill="#404040"/>
<path id="Vector 1164_2" d="M43.898 26.5254C44.0067 27.631 43.8232 28.8176 43.5593 29.83C43.2825 30.8922 41.9953 31.1251 41.2279 30.3401L37.7861 26.8194C37.0586 26.0753 37.2349 24.8437 38.1419 24.3335L41.1363 22.6492C41.9081 22.215 42.8778 22.5056 43.1717 23.341C43.4786 24.213 43.7811 25.3346 43.898 26.5254Z" fill="white"/>
</g>
<g id="Group 1000011735">
<path id="Vector 1163_3" d="M36.6292 10.4157C38.5344 11.3162 40.2918 12.8166 41.6008 14.1787C42.6149 15.2341 42.0261 16.8722 40.6082 17.2349L31.33 19.6087C29.9858 19.9526 28.6812 18.928 28.6967 17.5406L28.7741 10.6431C28.7874 9.46239 29.7698 8.4987 30.9391 8.66289C32.3911 8.86678 34.33 9.3291 36.6292 10.4157Z" fill="#404040"/>
<path id="Vector 1164_3" d="M34.3692 13.1687C35.381 13.6274 36.3169 14.3796 37.0617 15.1143C37.8432 15.8852 37.4012 17.1164 36.3378 17.3884L31.5678 18.6088C30.5597 18.8667 29.5812 18.0982 29.5929 17.0577L29.6314 13.6223C29.6414 12.7368 30.3778 12.0423 31.2482 12.2055C32.1569 12.3758 33.2794 12.6746 34.3692 13.1687Z" fill="white"/>
</g>
<g id="Group 1000011736">
<path id="Vector 1163_4" d="M17.3712 11.5862C19.1035 10.3865 21.2816 9.61469 23.1158 9.16219C24.5368 8.81162 25.6611 10.1405 25.2663 11.5499L22.6829 20.7719C22.3086 22.108 20.7689 22.7255 19.5752 22.0183L13.6405 18.5026C12.6246 17.9008 12.2812 16.5681 13.0081 15.6376C13.9107 14.4821 15.2805 13.034 17.3712 11.5862Z" fill="#404040"/>
<path id="Vector 1164_4" d="M18.6235 14.9187C19.5266 14.2718 20.646 13.8374 21.6547 13.5597C22.713 13.2684 23.5583 14.2667 23.2622 15.3237L21.9341 20.0648C21.6534 21.0668 20.4986 21.53 19.6033 20.9996L16.6475 19.2485C15.8856 18.7972 15.6523 17.8121 16.2288 17.1399C16.8307 16.4381 17.6507 15.6154 18.6235 14.9187Z" fill="white"/>
</g>
<g id="Group 1000011737">
<path id="Vector 1163_5" d="M8.53103 29.0884C8.35824 26.9883 8.77889 24.7161 9.3041 22.9014C9.71099 21.4955 11.424 21.1863 12.4471 22.2329L19.142 29.0812C20.1119 30.0734 19.8769 31.7155 18.6675 32.3958L12.6554 35.7775C11.6263 36.3563 10.3005 35.9874 9.85809 34.8927C9.30866 33.5332 8.73957 31.6229 8.53103 29.0884Z" fill="#404040"/>
<path id="Vector 1164_5" d="M12.0434 29.668C11.9347 28.5624 12.1182 27.3757 12.3821 26.3634C12.6589 25.3012 13.9461 25.0683 14.7135 25.8532L18.1553 29.374C18.8828 30.1181 18.7065 31.3497 17.7995 31.8599L14.8051 33.5442C14.0333 33.9783 13.0636 33.6878 12.7697 32.8524C12.4628 31.9803 12.1603 30.8588 12.0434 29.668Z" fill="white"/>
</g>
<g id="Group 1000011738">
<path id="Vector 1163_6" d="M19.238 45.4261C17.3328 44.5256 15.5754 43.0252 14.2664 41.6631C13.2523 40.6077 13.8411 38.9696 15.259 38.6069L24.5372 36.2331C25.8814 35.8892 27.186 36.9138 27.1705 38.3012L27.0931 45.1987C27.0798 46.3794 26.0974 47.3431 24.9281 47.1789C23.4761 46.975 21.5372 46.5127 19.238 45.4261Z" fill="#404040"/>
<path id="Vector 1164_6" d="M21.498 42.6731C20.4862 42.2144 19.5503 41.4622 18.8055 40.7275C18.024 39.9566 18.466 38.7254 19.5294 38.4534L24.2994 37.233C25.3075 36.9751 26.286 37.7436 26.2743 38.7841L26.2358 42.2195C26.2258 43.105 25.4894 43.7995 24.619 43.6363C23.7103 43.466 22.5878 43.1672 21.498 42.6731Z" fill="white"/>
</g>
</g>
</svg>
