<svg width="22" height="22" viewBox="0 0 22 22" fill="none" xmlns="http://www.w3.org/2000/svg">
<path d="M19.982 5.01909L20.1562 3.72698C20.2583 2.96926 19.7257 2.27262 18.9677 2.17255C18.6476 2.13029 18.3233 2.13029 18.0032 2.17255L17.8741 2.1896C17.2018 2.27835 16.7462 2.9191 16.8831 3.58325L17.186 5.05297C17.2595 5.40932 17.5102 5.70328 17.8505 5.83201L17.8761 5.84168C18.3439 6.01864 18.8603 6.01864 19.3281 5.84168C19.6806 5.70835 19.9316 5.39255 19.982 5.01909Z" stroke="#303030" stroke-width="1.5"/>
<path d="M18.249 7.84155C15.5137 7.95038 14.3485 13.0247 14.1825 16.1588C12.0528 15.4806 10.3736 14.9352 9.13542 14.9603C5.36358 15.0368 5.3435 18.6951 6.41213 19.8921H16.3395L19.615 9.98996C19.8239 9.35823 19.9326 8.58642 19.406 8.17978C19.0957 7.94027 18.6868 7.82413 18.249 7.84155Z" stroke="#303030" stroke-width="1.5"/>
<path d="M8.08893 10.8826C7.13725 10.4746 6.09677 10.5066 5.29073 11.068C4.4847 11.6294 4.09391 12.5943 4.14662 13.6284" stroke="#303030" stroke-width="1.5" stroke-linecap="round"/>
<path d="M2.05667 12.9092C1.79382 11.4302 2.41735 9.83642 3.77462 8.8911C5.13188 7.94578 6.84296 7.91349 8.1391 8.67283" stroke="#303030" stroke-width="1.5" stroke-linecap="round"/>
</svg>
