<svg width="22" height="22" viewBox="0 0 22 22" fill="none" xmlns="http://www.w3.org/2000/svg">
<path d="M4.85864 13.1877L5.83793 9.84562C6.04645 9.13399 6.61756 8.58686 7.33748 8.40906V8.40906C9.74322 7.81488 12.2574 7.81488 14.6631 8.40906V8.40906C15.3831 8.58686 15.9542 9.13399 16.1627 9.84562L17.142 13.1877" stroke="#303030" stroke-width="1.5"/>
<path d="M4.58341 13.188H17.4167M4.58341 13.188H2.29175M4.58341 13.188L4.51218 13.3305C4.25761 13.8396 4.12508 14.401 4.12508 14.9702V20.5213H6.87508V18.688H15.1251V20.5213H17.8751V14.9702C17.8751 14.401 17.7426 13.8396 17.488 13.3305L17.4167 13.188M17.4167 13.188H19.7084" stroke="#303030" stroke-width="1.5"/>
<circle cx="6.87492" cy="15.9382" r="0.916667" fill="#303030"/>
<circle cx="15.1249" cy="15.9384" r="0.916667" fill="#303030"/>
<path d="M14.8044 5.85441C13.9369 4.46286 12.5558 3.56274 11.0002 3.56274C9.44462 3.56274 8.06351 4.46286 7.19604 5.85441" stroke="#303030" stroke-width="1.5" stroke-linecap="round"/>
<path d="M5.13086 4.47966C6.12794 2.31974 8.38076 0.812988 11.0002 0.812988C13.6196 0.812988 15.8724 2.31974 16.8695 4.47966" stroke="#303030" stroke-width="1.5" stroke-linecap="round"/>
</svg>
