<svg width="22" height="22" viewBox="0 0 22 22" fill="none" xmlns="http://www.w3.org/2000/svg">
<path d="M10.8527 4.3724C10.9154 4.25442 11.0845 4.25442 11.1471 4.3724L13.0102 7.88023C13.2511 8.3338 13.6877 8.65098 14.1935 8.73993L18.1054 9.42784C18.2369 9.45098 18.2892 9.61176 18.1963 9.70782L15.4359 12.5637C15.079 12.933 14.9122 13.4462 14.9839 13.9547L15.5385 17.8877C15.5572 18.02 15.4204 18.1193 15.3004 18.0607L11.7312 16.3179C11.2697 16.0926 10.7301 16.0926 10.2686 16.3179L6.69953 18.0607C6.57948 18.1193 6.44271 18.02 6.46136 17.8877L7.01595 13.9547C7.08766 13.4462 6.92091 12.933 6.56398 12.5637L3.80356 9.70782C3.71071 9.61176 3.76295 9.45098 3.89453 9.42784L7.80639 8.73993C8.31221 8.65098 8.74877 8.3338 8.98967 7.88023L10.8527 4.3724Z" stroke="#303030" stroke-width="1.5"/>
<path d="M14.395 4.77556L17.4142 1.75629" stroke="#303030" stroke-width="1.5" stroke-linecap="round"/>
<path d="M16.5872 6.02686L17.9245 4.68957" stroke="#303030" stroke-width="1.5" stroke-linecap="round"/>
<path d="M2.24202 16.9285L3.91934 15.2513" stroke="#303030" stroke-width="1.5" stroke-linecap="round"/>
</svg>
